HIERARCHY
ROOT Pelvis
{
	OFFSET 0.000000 0.000000 0.000000
	CHANNELS 6 Xposition Yposition Zposition Xrotation Yrotation Zrotation
	JOINT LeftUpLeg_virtual
	{
		OFFSET 0.000000 0.000000 0.000000
		CHANNELS 3 Xrotation Yrotation Zrotation
		JOINT LeftUpLeg
		{
			OFFSET 18.735201 -5.666702 -4.541200
			CHANNELS 3 Xrotation Yrotation Zrotation
			JOINT LeftLeg
			{
				OFFSET -0.021200 -31.938179 0.493100
				CHANNELS 3 Xrotation Yrotation Zrotation
				JOINT LeftFoot
				{
					OFFSET 0.021200 -31.938179 -4.336299
					CHANNELS 3 Xrotation Yrotation Zrotation
					JOINT LeftToeBase
					{
						OFFSET 0.943001 -26.722000 15.023500
						CHANNELS 3 Xrotation Yrotation Zrotation
						End Site
						{
							OFFSET 0 0 0
						}
					}
				}
			}
		}
	}
	JOINT RightUpLeg_virtual
	{
		OFFSET 0.000000 0.000000 0.000000
		CHANNELS 3 Xrotation Yrotation Zrotation
		JOINT RightUpLeg
		{
			OFFSET -18.735201 -5.666702 -4.541200
			CHANNELS 3 Xrotation Yrotation Zrotation
			JOINT RightLeg
			{
				OFFSET 0.018946 -31.938133 0.493100
				CHANNELS 3 Xrotation Yrotation Zrotation
				JOINT RightFoot
				{
					OFFSET -0.018946 -31.938126 -4.336299
					CHANNELS 3 Xrotation Yrotation Zrotation
					JOINT RightToeBase
					{
						OFFSET -0.943001 -26.722004 15.023500
						CHANNELS 3 Xrotation Yrotation Zrotation
						End Site
						{
							OFFSET 0 0 0
						}
					}
				}
			}
		}
	}
	JOINT Hips_virtual
	{
		OFFSET 0.000000 0.000000 0.000000
		CHANNELS 3 Xrotation Yrotation Zrotation
		JOINT Hips
		{
			OFFSET -0.000000 -0.000000 -0.000000
			CHANNELS 3 Xrotation Yrotation Zrotation
			JOINT Spine
			{
				OFFSET 0.000000 10.199997 -0.299500
				CHANNELS 3 Xrotation Yrotation Zrotation
				JOINT Spine1
				{
					OFFSET 0.000000 11.900002 -1.516600
					CHANNELS 3 Xrotation Yrotation Zrotation
					JOINT Spine2
					{
						OFFSET 0.000000 13.600006 -2.842500
						CHANNELS 3 Xrotation Yrotation Zrotation
						JOINT Neck_virtual
						{
							OFFSET 0.000000 0.000000 0.000000
							CHANNELS 3 Xrotation Yrotation Zrotation
							JOINT Neck
							{
								OFFSET 0.000000 9.624100 -2.890100
								CHANNELS 3 Xrotation Yrotation Zrotation
								JOINT Head
								{
									OFFSET 0.000000 14.068802 -1.351900
									CHANNELS 3 Xrotation Yrotation Zrotation
									End Site
									{
										OFFSET 0 0 0
									}
								}
							}
						}
						JOINT LeftShoulder_virtual
						{
							OFFSET 0.000000 0.000000 0.000000
							CHANNELS 3 Xrotation Yrotation Zrotation
							JOINT LeftShoulder
							{
								OFFSET 15.263000 10.923401 -0.547700
								CHANNELS 3 Xrotation Yrotation Zrotation
								JOINT LeftArm
								{
									OFFSET 25.438599 -2.830597 -13.032500
									CHANNELS 3 Xrotation Yrotation Zrotation
									JOINT LeftForeArm
									{
										OFFSET 29.960503 0.000000 0.000000
										CHANNELS 3 Xrotation Yrotation Zrotation
										JOINT LeftHand
										{
											OFFSET 27.849251 0.000000 0.000000
											CHANNELS 3 Xrotation Yrotation Zrotation
											End Site
											{
												OFFSET 0 0 0
											}
										}
									}
								}
							}
						}
						JOINT RightShoulder_virtual
						{
							OFFSET 0.000000 0.000000 0.000000
							CHANNELS 3 Xrotation Yrotation Zrotation
							JOINT RightShoulder
							{
								OFFSET -15.263000 10.923401 -0.547700
								CHANNELS 3 Xrotation Yrotation Zrotation
								JOINT RightArm
								{
									OFFSET -25.438599 -2.830597 -13.032500
									CHANNELS 3 Xrotation Yrotation Zrotation
									JOINT RightForeArm
									{
										OFFSET -29.960503 0.000000 0.000000
										CHANNELS 3 Xrotation Yrotation Zrotation
										JOINT RightHand
										{
											OFFSET -27.849251 0.000000 0.000000
											CHANNELS 3 Xrotation Yrotation Zrotation
											End Site
											{
												OFFSET 0 0 0
											}
										}
									}
								}
							}
						}
					}
				}
			}
		}
	}
}
MOTION
Frames: 4
Frame Time: 0.03333333
0.117896 92.242226 4.570997 0.000000 0.000000 0.000000 -0.587398 -0.367419 -0.303435 -13.188855 4.132061 9.763996 30.852883 3.489653 1.412430 -16.133749 2.226938 -10.869437 0.000000 0.000000 0.000000 -0.587398 -0.367419 -0.303435 -14.236703 2.003511 -3.042808 32.071611 -1.420232 -2.856193 -17.040104 -1.511247 6.904514 0.000000 0.000000 0.000000 -0.587398 -0.367419 -0.303435 0.000000 0.000000 0.000000 0.361195 -0.182177 0.255405 -1.750145 -0.199001 0.196420 0.000000 0.000000 0.000000 -1.750109 -0.188404 0.203701 0.187908 -0.079713 -0.167839 0.000000 0.000000 0.000000 -1.750109 -0.188404 0.203701 0.993407 -13.202430 -11.017493 16.778892 -19.384220 -67.597371 -0.000005 -17.727285 -0.000000 0.000000 0.000000 0.000000 -1.750109 -0.188404 0.203701 1.651817 9.058837 10.503890 6.412944 25.534621 64.587512 -0.000006 12.370155 -0.000003 0.000000 0.000000 0.000000 
0.140208 92.246391 4.557686 0.000000 0.000000 0.000000 -0.575627 -0.349022 -0.269509 -13.202246 4.172619 9.696184 30.804249 3.456235 1.462676 -16.093521 2.225713 -10.888951 0.000000 0.000000 0.000000 -0.575627 -0.349022 -0.269509 -14.263042 1.981505 -3.129176 32.098177 -1.420389 -2.809737 -17.047450 -1.513150 6.904753 0.000000 0.000000 0.000000 -0.575627 -0.349022 -0.269509 0.000000 0.000000 0.000000 0.374996 -0.161576 0.235499 -1.755794 -0.176235 0.190827 0.000000 0.000000 0.000000 -1.755715 -0.166635 0.197366 0.200023 -0.081160 -0.177122 0.000000 0.000000 0.000000 -1.755715 -0.166635 0.197366 0.994041 -13.267619 -11.041538 16.766351 -19.385889 -67.571307 0.000000 -17.712813 -0.000005 0.000000 0.000000 0.000000 -1.755715 -0.166635 0.197366 1.651096 9.037779 10.513392 6.473523 25.519861 64.541408 -0.000004 12.373802 -0.000002 0.000000 0.000000 0.000000 
0.174544 92.248093 4.545103 0.000000 0.000000 0.000000 -0.563361 -0.335364 -0.221920 -13.210422 4.220366 9.601923 30.755457 3.427721 1.515575 -16.059146 2.222622 -10.905087 0.000000 0.000000 0.000000 -0.563361 -0.335364 -0.221920 -14.305491 1.953545 -3.253573 32.155571 -1.393180 -2.749230 -17.070055 -1.516575 6.905416 0.000000 0.000000 0.000000 -0.563361 -0.335364 -0.221920 0.000000 0.000000 0.000000 0.389063 -0.140587 0.213108 -1.758987 -0.152911 0.185722 0.000000 0.000000 0.000000 -1.758853 -0.144486 0.191302 0.211914 -0.086508 -0.187144 0.000000 0.000000 0.000000 -1.758853 -0.144486 0.191302 0.994574 -13.331121 -11.067193 16.711227 -19.428792 -67.559395 0.000009 -17.694291 0.000017 0.000000 0.000000 0.000000 -1.758853 -0.144486 0.191302 1.655696 9.081052 10.518683 6.559966 25.463652 64.487320 0.000001 12.345278 0.000018 0.000000 0.000000 0.000000 
0.217148 92.255150 4.528517 0.000000 0.000000 0.000000 -0.547733 -0.349680 -0.161616 -13.186700 4.256482 9.503570 30.664001 3.435733 1.517768 -16.007829 2.217978 -10.898900 0.000000 0.000000 0.000000 -0.547733 -0.349680 -0.161616 -14.364313 1.971700 -3.401488 32.206821 -1.351551 -2.674462 -17.073327 -1.519937 6.909776 0.000000 0.000000 0.000000 -0.547733 -0.349680 -0.161616 0.000000 0.000000 0.000000 0.417327 -0.112752 0.184580 -1.760835 -0.122205 0.183156 0.000000 0.000000 0.000000 -1.760678 -0.115203 0.187763 0.226858 -0.093218 -0.187291 0.000000 0.000000 0.000000 -1.760678 -0.115203 0.187763 0.993603 -13.360152 -11.115195 16.611230 -19.504165 -67.520436 0.000001 -17.678773 0.000003 0.000000 0.000000 0.000000 -1.760678 -0.115203 0.187763 1.663817 9.137676 10.542184 6.627470 25.453455 64.389266 0.000007 12.280780 0.000000 0.000000 0.000000 0.000000 
